<svg width="30" height="30" viewBox="0 0 30 30" fill="none" xmlns="http://www.w3.org/2000/svg">
<path d="M22.4999 12.5C22.4999 12.1685 22.3682 11.8505 22.1338 11.6161C21.8994 11.3817 21.5815 11.25 21.2499 11.25H6.76243L9.63743 8.38749C9.87281 8.15211 10.005 7.83286 10.005 7.49999C10.005 7.16711 9.87281 6.84787 9.63743 6.61249C9.40205 6.37711 9.08281 6.24487 8.74993 6.24487C8.41705 6.24487 8.09781 6.37711 7.86243 6.61249L2.86243 11.6125C2.68898 11.7883 2.57149 12.0115 2.52477 12.254C2.47805 12.4965 2.50421 12.7473 2.59993 12.975C2.69371 13.2033 2.85295 13.3987 3.0576 13.5366C3.26225 13.6745 3.50315 13.7488 3.74993 13.75H21.2499C21.5815 13.75 21.8994 13.6183 22.1338 13.3839C22.3682 13.1495 22.4999 12.8315 22.4999 12.5ZM27.3999 17.025C27.3062 16.7967 27.1469 16.6013 26.9423 16.4634C26.7376 16.3255 26.4967 16.2512 26.2499 16.25H8.74993C8.41841 16.25 8.10047 16.3817 7.86605 16.6161C7.63163 16.8505 7.49993 17.1685 7.49993 17.5C7.49993 17.8315 7.63163 18.1495 7.86605 18.3839C8.10047 18.6183 8.41841 18.75 8.74993 18.75H23.2374L20.3624 21.6125C20.2453 21.7287 20.1523 21.8669 20.0888 22.0193C20.0254 22.1716 19.9927 22.335 19.9927 22.5C19.9927 22.665 20.0254 22.8284 20.0888 22.9807C20.1523 23.133 20.2453 23.2713 20.3624 23.3875C20.4786 23.5046 20.6169 23.5976 20.7692 23.6611C20.9215 23.7246 21.0849 23.7572 21.2499 23.7572C21.4149 23.7572 21.5783 23.7246 21.7307 23.6611C21.883 23.5976 22.0212 23.5046 22.1374 23.3875L27.1374 18.3875C27.3109 18.2117 27.4284 17.9885 27.4751 17.746C27.5218 17.5035 27.4957 17.2526 27.3999 17.025Z" fill="#00F571"/>
</svg>
