<svg width="60" height="82" viewBox="0 0 60 82" fill="none" xmlns="http://www.w3.org/2000/svg">
<g filter="url(#filter0_d_15_31)">
<path d="M24.905 34.4905V40.8085L10.9683 28.2964L24.905 15.7842V22.1022C24.905 22.1022 46.8477 20.9408 46.8477 40.9478C40.0032 29.8449 24.905 34.4905 24.905 34.4905Z" stroke="#00F571" stroke-width="5.0625" stroke-linecap="round" stroke-linejoin="round"/>
<path d="M10.9683 28.2964L13.1052 30.0462L24.8121 19.3923L24.905 15.7842L10.9683 28.2964Z" fill="#00F571"/>
<path d="M35.095 47.5095V41.1915L49.0317 53.7036L35.095 66.2158V59.8978C35.095 59.8978 13.1523 61.0592 13.1523 41.0522C19.9968 52.1551 35.095 47.5095 35.095 47.5095Z" stroke="#00F571" stroke-width="5.0625" stroke-linecap="round" stroke-linejoin="round"/>
<path d="M49.0317 53.7036L46.8948 51.9538L35.1879 62.6077L35.095 66.2158L49.0317 53.7036Z" fill="#00F571"/>
</g>
<defs>
<filter id="filter0_d_15_31" x="0" y="0.294128" width="60" height="81.4117" filterUnits="userSpaceOnUse" color-interpolation-filters="sRGB">
<feFlood flood-opacity="0" result="BackgroundImageFix"/>
<feColorMatrix in="SourceAlpha" type="matrix" values="0 0 0 0 0 0 0 0 0 0 0 0 0 0 0 0 0 0 127 0" result="hardAlpha"/>
<feOffset/>
<feGaussianBlur stdDeviation="2"/>
<feComposite in2="hardAlpha" operator="out"/>
<feColorMatrix type="matrix" values="0 0 0 0 0 0 0 0 0 0 0 0 0 0 0 0 0 0 1 0"/>
<feBlend mode="normal" in2="BackgroundImageFix" result="effect1_dropShadow_15_31"/>
<feBlend mode="normal" in="SourceGraphic" in2="effect1_dropShadow_15_31" result="shape"/>
</filter>
</defs>
</svg>
