<svg width="26" height="12" viewBox="0 0 26 12" fill="none" xmlns="http://www.w3.org/2000/svg">
<path d="M2.26244 8.55655H23.7373C24.5845 8.55655 25.2712 9.2433 25.2712 10.0905C25.2712 10.867 24.6942 11.5088 23.9455 11.6104L23.7373 11.6244H2.26244C1.41527 11.6244 0.728516 10.9376 0.728516 10.0905C0.728516 9.3139 1.30558 8.67212 2.05429 8.57055L2.26244 8.55655ZM2.26244 0.375641H23.7373C24.5845 0.375641 25.2712 1.0624 25.2712 1.90956C25.2712 2.68612 24.6942 3.32791 23.9455 3.42948L23.7373 3.44348H2.26244C1.41527 3.44348 0.728516 2.75672 0.728516 1.90956C0.728516 1.133 1.30558 0.491214 2.05429 0.389643L2.26244 0.375641Z" fill="#00F571"/>
</svg>
