<svg width="21" height="20" viewBox="0 0 21 20" fill="none" xmlns="http://www.w3.org/2000/svg">
<path d="M19.6216 10.7028C19.4772 10.5835 19.3023 10.5071 19.1166 10.4823C18.931 10.4576 18.7421 10.4855 18.5716 10.5628C17.5142 11.0467 16.3645 11.2957 15.2016 11.2928C13.0504 11.2902 10.9876 10.4372 9.46272 8.91989C7.93789 7.40255 7.07478 5.3439 7.06158 3.19279C7.06614 2.51862 7.15005 1.84733 7.31158 1.19279C7.34586 1.01833 7.333 0.837881 7.27434 0.670042C7.21567 0.502203 7.11332 0.35304 6.97782 0.23792C6.84233 0.122799 6.67859 0.0458858 6.50348 0.0151026C6.32837 -0.0156807 6.14821 0.000779722 5.98158 0.062788C4.41391 0.767696 3.05115 1.85955 2.02134 3.23577C0.991527 4.61199 0.32846 6.22741 0.0944297 7.93027C-0.139601 9.63313 0.0630863 11.3675 0.68345 12.9706C1.30381 14.5736 2.32149 15.9926 3.64088 17.0943C4.96027 18.1959 6.53806 18.9442 8.22603 19.2686C9.91399 19.593 11.6567 19.4831 13.2905 18.949C14.9243 18.415 16.3955 17.4743 17.566 16.2155C18.7364 14.9567 19.5676 13.4211 19.9816 11.7528C20.032 11.5618 20.0247 11.3601 19.9606 11.1733C19.8966 10.9864 19.7786 10.8227 19.6216 10.7028ZM10.1216 17.3928C8.44334 17.3809 6.80978 16.8507 5.44457 15.8745C4.07936 14.8984 3.04925 13.5241 2.49526 11.9399C1.94128 10.3557 1.89052 8.63897 2.34992 7.02479C2.80932 5.41061 3.75644 3.97789 5.06158 2.92279V3.19279C5.06423 5.88127 6.1334 8.45888 8.03444 10.3599C9.93549 12.261 12.5131 13.3301 15.2016 13.3328C15.9075 13.3354 16.6116 13.2616 17.3016 13.1128C16.6115 14.4183 15.578 15.5106 14.3127 16.2719C13.0474 17.0332 11.5983 17.4346 10.1216 17.4328V17.3928Z" fill="black"/>
</svg>
